<?xml version="1.0" encoding="UTF-8"?> <svg xmlns="http://www.w3.org/2000/svg" xmlns:xlink="http://www.w3.org/1999/xlink" width="662px" height="487px" viewBox="0 0 662 487" version="1.1"><!-- Generator: Sketch 59.1 (86144) - https://sketch.com --><title>Untitled 8</title><desc>Created with Sketch.</desc><g id="Page-1" stroke="none" stroke-width="1" fill="none" fill-rule="evenodd"><g id="file-system-storage-diagram"><g id="Layer_2_1_" opacity="0.5" fill="#EEF5F7" fill-rule="nonzero"><rect id="Rectangle" x="0.4" y="0.8" width="660.8" height="485.9"></rect></g><g id="Layer_1_1_" transform="translate(63.000000, 48.000000)"><g id="Group" stroke-linecap="round" stroke-linejoin="round" transform="translate(267.000000, 65.000000)" stroke="#FF8749" stroke-width="3.4651"><polyline id="Path" points="0.9 0 0.7 38.7 213.2 38.7 213.2 68.3"></polyline><rect id="Rectangle" x="150.7" y="68.3" width="103" height="84.2"></rect><line x1="215.3" y1="152.4" x2="215.3" y2="214" id="Path"></line><polyline id="Path" points="215.3 165.5 274.7 165.5 274.7 214 215.3 214"></polyline></g><line x1="256.9" y1="65" x2="256.9" y2="152.4" id="Path" stroke="#00BCBC" stroke-width="3.4651" stroke-linejoin="round"></line><polyline id="Path" stroke="#00BCBC" stroke-width="3.4651" stroke-linejoin="round" points="469.2 152.4 469.2 113.7 44.7 113.7 44.7 152.4"></polyline><polyline id="Path" stroke="#00BCBC" stroke-width="3.4651" stroke-linejoin="round" points="44.7 194.8 44.7 309.8 70.7 309.8"></polyline><line x1="44.7" y1="258.8" x2="70.7" y2="258.8" id="Path" stroke="#00BCBC" stroke-width="3.4651" stroke-linejoin="round"></line><g id="Group" transform="translate(0.000000, 141.000000)" fill-rule="nonzero"><polygon id="Path" fill="#F4BA00" points="0.5 16.3 88.8 16.3 85.1 68.4 4.7 68.4"></polygon><polygon id="Path" fill="#002D3F" points="6.6 14.2 6.6 0.2 34.9 0.2 41.4 8.2 82.7 8.2 82.7 14.2"></polygon></g><g id="Group" transform="translate(63.000000, 236.000000)" fill="#F4BA00" fill-rule="nonzero"><polygon id="Path" points="0 9.1 47.4 9.1 45.4 37.1 2.2 37.1"></polygon><polygon id="Path" points="3.3 8 3.3 0.4 18.5 0.4 22 4.7 44.1 4.7 44.1 8"></polygon></g><g id="Group" transform="translate(63.000000, 287.000000)" fill="#F4BA00" fill-rule="nonzero"><polygon id="Path" points="0 8.9 47.4 8.9 45.4 36.9 2.2 36.9"></polygon><polygon id="Path" points="3.3 7.7 3.3 0.2 18.5 0.2 22 4.5 44.1 4.5 44.1 7.7"></polygon></g><polyline id="Path" stroke="#00BCBC" stroke-width="3.4651" stroke-linejoin="round" points="256.9 194.8 256.9 309.8 283 309.8"></polyline><line x1="256.9" y1="258.8" x2="283" y2="258.8" id="Path" stroke="#00BCBC" stroke-width="3.4651" stroke-linejoin="round"></line><g id="Group" transform="translate(275.000000, 236.000000)" fill="#F4BA00" fill-rule="nonzero"><polygon id="Path" points="0.3 9.1 47.7 9.1 45.7 37.1 2.5 37.1"></polygon><polygon id="Path" points="3.5 8 3.5 0.4 18.8 0.4 22.2 4.7 44.4 4.7 44.4 8"></polygon></g><g id="Group" transform="translate(275.000000, 287.000000)" fill="#F4BA00" fill-rule="nonzero"><polygon id="Path" points="0.3 8.9 47.7 8.9 45.7 36.9 2.5 36.9"></polygon><polygon id="Path" points="3.5 7.7 3.5 0.2 18.8 0.2 22.2 4.5 44.4 4.5 44.4 7.7"></polygon></g><polyline id="Path" stroke="#00BCBC" stroke-width="3.4651" stroke-linejoin="round" points="469.2 194.8 469.2 309.8 495.3 309.8"></polyline><line x1="469.2" y1="258.8" x2="495.3" y2="258.8" id="Path" stroke="#00BCBC" stroke-width="3.4651" stroke-linejoin="round"></line><g id="Group" transform="translate(487.000000, 236.000000)" fill-rule="nonzero"><polygon id="Path" fill="#F4BA00" points="0.6 9.1 48 9.1 46 37.1 2.8 37.1"></polygon><polygon id="Path" fill="#FF8749" points="3.8 8 3.8 0.4 19 0.4 22.5 4.7 44.7 4.7 44.7 8"></polygon></g><g id="Group" transform="translate(487.000000, 287.000000)" fill="#F4BA00" fill-rule="nonzero"><polygon id="Path" points="0.6 8.9 48 8.9 46 36.9 2.8 36.9"></polygon><polygon id="Path" points="3.8 7.7 3.8 0.2 19 0.2 22.5 4.5 44.7 4.5 44.7 7.7"></polygon></g><g id="Group" transform="translate(212.000000, 141.000000)" fill-rule="nonzero"><polygon id="Path" fill="#F4BA00" points="0.8 16.3 89 16.3 85.4 68.4 4.9 68.4"></polygon><polygon id="Path" fill="#002D3F" points="6.9 14.2 6.9 0.2 35.2 0.2 41.7 8.2 83 8.2 83 14.2"></polygon></g><g id="Group" transform="translate(425.000000, 141.000000)" fill-rule="nonzero"><polygon id="Path" fill="#F4BA00" points="0.1 16.3 88.3 16.3 84.7 68.4 4.2 68.4"></polygon><polygon id="Path" fill="#FF8749" points="6.2 14.2 6.2 0.2 34.5 0.2 41 8.2 82.3 8.2 82.3 14.2"></polygon></g><g id="Group" transform="translate(115.000000, 358.000000)" fill="#002D3F" fill-rule="nonzero"><path d="M2.2,12.8 C1.4,12.6 0.7,12.2 0.2,11.8 L1.1,9.8 C1.6,10.2 2.2,10.4 2.9,10.7 C3.6,10.9 4.3,11 4.9,11 C5.7,11 6.2,10.9 6.6,10.7 C7,10.5 7.1,10.2 7.1,9.8 C7.1,9.5 7,9.3 6.8,9.1 C6.6,8.9 6.3,8.8 6,8.7 C5.7,8.6 5.2,8.5 4.7,8.3 C3.8,8.1 3.1,7.9 2.6,7.7 C2,7.5 1.6,7.2 1.2,6.7 C0.8,6.2 0.6,5.6 0.6,4.9 C0.6,4.2 0.8,3.6 1.1,3.1 C1.5,2.6 2,2.1 2.7,1.8 C3.4,1.5 4.3,1.3 5.4,1.3 C6.1,1.3 6.8,1.4 7.5,1.6 C8.2,1.8 8.8,2 9.3,2.4 L8.5,4.4 C7.4,3.8 6.4,3.5 5.3,3.5 C4.6,3.5 4,3.6 3.7,3.9 C3.3,4.1 3.2,4.5 3.2,4.8 C3.2,5.1 3.4,5.5 3.8,5.7 C4.2,5.9 4.8,6.1 5.7,6.3 C6.6,6.5 7.3,6.7 7.8,6.9 C8.4,7.1 8.8,7.4 9.2,7.9 C9.6,8.3 9.8,9 9.8,9.7 C9.8,10.4 9.6,11 9.3,11.5 C8.9,12 8.4,12.5 7.7,12.8 C7,13.1 6.1,13.3 5,13.3 C3.9,13.1 3,13 2.2,12.8 Z" id="Path"></path><path d="M18.8,4.6 C19.5,5 20,5.5 20.4,6.2 C20.8,6.9 21,7.7 21,8.6 C21,9.5 20.8,10.3 20.4,11 C20,11.7 19.5,12.2 18.8,12.6 C18.1,13 17.4,13.2 16.6,13.2 C15.5,13.2 14.6,12.8 13.9,12.1 L13.9,16.2 L11.3,16.2 L11.3,4.2 L13.7,4.2 L13.7,5.2 C14.3,4.4 15.3,4.1 16.5,4.1 C17.3,4 18.1,4.2 18.8,4.6 Z M17.7,10.3 C18.1,9.9 18.3,9.3 18.3,8.5 C18.3,7.8 18.1,7.2 17.7,6.7 C17.3,6.3 16.7,6 16.1,6 C15.4,6 14.9,6.2 14.5,6.7 C14.1,7.1 13.9,7.7 13.9,8.5 C13.9,9.2 14.1,9.8 14.5,10.3 C14.9,10.7 15.5,11 16.1,11 C16.7,11 17.3,10.7 17.7,10.3 Z" id="Shape"></path><path d="M31.2,9.2 L24.5,9.2 C24.6,9.7 24.9,10.2 25.4,10.5 C25.8,10.8 26.4,11 27.1,11 C27.6,11 28,10.9 28.3,10.8 C28.6,10.7 29,10.4 29.3,10.2 L30.7,11.7 C29.9,12.6 28.7,13.1 27.1,13.1 C26.1,13.1 25.2,12.9 24.5,12.5 C23.7,12.1 23.1,11.6 22.7,10.9 C22.3,10.2 22.1,9.4 22.1,8.6 C22.1,7.7 22.3,7 22.7,6.3 C23.1,5.6 23.7,5.1 24.4,4.7 C25.1,4.3 25.9,4.1 26.8,4.1 C27.7,4.1 28.4,4.3 29.1,4.7 C29.8,5.1 30.3,5.6 30.7,6.3 C31.1,7 31.3,7.8 31.3,8.7 C31.2,8.6 31.2,8.8 31.2,9.2 Z M25.2,6.4 C24.8,6.7 24.6,7.2 24.5,7.7 L28.8,7.7 C28.7,7.1 28.5,6.7 28.1,6.4 C27.7,6.1 27.2,5.9 26.7,5.9 C26.1,5.9 25.6,6.1 25.2,6.4 Z" id="Shape"></path><path d="M34.7,12.5 C34,12.1 33.4,11.6 32.9,10.9 C32.5,10.2 32.3,9.4 32.3,8.6 C32.3,7.7 32.5,6.9 32.9,6.3 C33.3,5.6 33.9,5.1 34.7,4.7 C35.4,4.3 36.3,4.1 37.2,4.1 C38.1,4.1 38.9,4.3 39.6,4.7 C40.3,5.1 40.8,5.6 41.1,6.4 L39.1,7.5 C38.6,6.7 38,6.3 37.1,6.3 C36.4,6.3 35.9,6.5 35.4,7 C35,7.4 34.7,8 34.7,8.8 C34.7,9.6 34.9,10.1 35.4,10.6 C35.8,11 36.4,11.3 37.1,11.3 C38,11.3 38.6,10.9 39.1,10.1 L41.1,11.2 C40.8,11.9 40.3,12.4 39.6,12.8 C38.9,13.2 38.1,13.4 37.2,13.4 C36.3,13.1 35.4,12.9 34.7,12.5 Z" id="Path"></path><path d="M42.7,2.5 C42.4,2.2 42.3,1.9 42.3,1.5 C42.3,1.1 42.4,0.8 42.7,0.5 C43,0.2 43.4,0.1 43.8,0.1 C44.3,0.1 44.7,0.2 44.9,0.5 C45.1,0.8 45.3,1.1 45.3,1.5 C45.3,1.9 45.2,2.3 44.9,2.6 C44.6,2.9 44.2,3 43.8,3 C43.4,2.9 43,2.8 42.7,2.5 Z M42.6,4.1 L45.2,4.1 L45.2,12.9 L42.6,12.9 L42.6,4.1 Z" id="Shape"></path><path d="M50.3,4.3 L52.6,4.3 L52.6,6.3 L50.4,6.3 L50.4,12.9 L47.8,12.9 L47.8,6.3 L46.4,6.3 L46.4,4.3 L47.8,4.3 L47.8,3.9 C47.8,2.9 48.1,2.1 48.7,1.5 C49.3,0.9 50.1,0.6 51.2,0.6 C51.6,0.6 51.9,0.6 52.3,0.7 C52.7,0.8 52.9,0.9 53.2,1.1 L52.5,2.9 C52.2,2.7 51.9,2.6 51.5,2.6 C50.7,2.6 50.3,3 50.3,3.9 L50.3,4.3 L50.3,4.3 Z M55.3,2.5 C55,2.2 54.9,1.9 54.9,1.5 C54.9,1.1 55,0.8 55.3,0.5 C55.6,0.2 56,0.1 56.4,0.1 C56.9,0.1 57.3,0.2 57.5,0.5 C57.7,0.8 57.9,1.1 57.9,1.5 C57.9,1.9 57.8,2.3 57.5,2.6 C57.2,2.9 56.8,3 56.4,3 C56,2.9 55.6,2.8 55.3,2.5 Z M55.2,4.1 L57.8,4.1 L57.8,12.9 L55.2,12.9 L55.2,4.1 Z" id="Shape"></path><path d="M61.8,12.5 C61.1,12.1 60.5,11.6 60,10.9 C59.6,10.2 59.4,9.4 59.4,8.6 C59.4,7.7 59.6,6.9 60,6.3 C60.4,5.6 61,5.1 61.8,4.7 C62.5,4.3 63.4,4.1 64.3,4.1 C65.2,4.1 66,4.3 66.7,4.7 C67.4,5.1 67.9,5.6 68.2,6.4 L66.2,7.5 C65.7,6.7 65.1,6.3 64.2,6.3 C63.5,6.3 63,6.5 62.5,7 C62.1,7.4 61.8,8 61.8,8.8 C61.8,9.6 62,10.1 62.5,10.6 C62.9,11 63.5,11.3 64.2,11.3 C65.1,11.3 65.7,10.9 66.2,10.1 L68.2,11.2 C67.9,11.9 67.4,12.4 66.7,12.8 C66,13.2 65.2,13.4 64.3,13.4 C63.4,13.1 62.6,12.9 61.8,12.5 Z" id="Path"></path><path d="M77.2,4.3 L79.5,4.3 L79.5,6.3 L77.3,6.3 L77.3,12.9 L74.7,12.9 L74.7,6.3 L73.3,6.3 L73.3,4.3 L74.7,4.3 L74.7,3.9 C74.7,2.9 75,2.1 75.6,1.5 C76.2,0.9 77,0.6 78.1,0.6 C78.5,0.6 78.8,0.6 79.2,0.7 C79.6,0.8 79.8,0.9 80.1,1.1 L79.4,2.9 C79.1,2.7 78.8,2.6 78.4,2.6 C77.6,2.6 77.2,3 77.2,3.9 L77.2,4.3 L77.2,4.3 Z" id="Path"></path><path d="M82.3,12.5 C81.6,12.1 81,11.6 80.6,10.9 C80.2,10.2 80,9.4 80,8.6 C80,7.7 80.2,6.9 80.6,6.3 C81,5.7 81.6,5.1 82.3,4.7 C83,4.3 83.9,4.1 84.8,4.1 C85.7,4.1 86.6,4.3 87.3,4.7 C88,5.1 88.6,5.6 89,6.3 C89.4,7 89.6,7.8 89.6,8.6 C89.6,9.5 89.4,10.3 89,10.9 C88.6,11.6 88,12.1 87.3,12.5 C86.6,12.9 85.7,13.1 84.8,13.1 C83.9,13.1 83.1,12.9 82.3,12.5 Z M86.4,10.3 C86.8,9.9 87,9.3 87,8.5 C87,7.8 86.8,7.2 86.4,6.7 C86,6.3 85.4,6 84.8,6 C84.1,6 83.6,6.2 83.2,6.7 C82.8,7.1 82.6,7.7 82.6,8.5 C82.6,9.2 82.8,9.8 83.2,10.3 C83.6,10.7 84.2,11 84.8,11 C85.5,11 86,10.7 86.4,10.3 Z" id="Shape"></path><polygon id="Path" points="91.3 0.8 93.9 0.8 93.9 12.9 91.3 12.9"></polygon><path d="M105.2,0.8 L105.2,12.9 L102.8,12.9 L102.8,11.9 C102.2,12.7 101.3,13 100.1,13 C99.3,13 98.5,12.8 97.8,12.4 C97.1,12 96.6,11.5 96.2,10.8 C95.8,10.1 95.6,9.3 95.6,8.4 C95.6,7.5 95.8,6.7 96.2,6 C96.6,5.3 97.1,4.8 97.8,4.4 C98.5,4 99.2,3.8 100.1,3.8 C101.2,3.8 102.1,4.2 102.7,4.9 L102.7,0.6 L105.2,0.6 L105.2,0.8 Z M102.1,10.3 C102.5,9.9 102.7,9.3 102.7,8.5 C102.7,7.8 102.5,7.2 102.1,6.7 C101.7,6.3 101.1,6 100.5,6 C99.8,6 99.3,6.2 98.9,6.7 C98.5,7.1 98.3,7.7 98.3,8.5 C98.3,9.2 98.5,9.8 98.9,10.3 C99.3,10.7 99.9,11 100.5,11 C101.1,11 101.7,10.7 102.1,10.3 Z" id="Shape"></path><path d="M116.2,9.2 L109.5,9.2 C109.6,9.7 109.9,10.2 110.4,10.5 C110.8,10.8 111.4,11 112.1,11 C112.6,11 113,10.9 113.3,10.8 C113.6,10.7 114,10.4 114.3,10.2 L115.7,11.7 C114.9,12.6 113.7,13.1 112.1,13.1 C111.1,13.1 110.2,12.9 109.5,12.5 C108.7,12.1 108.1,11.6 107.7,10.9 C107.3,10.2 107.1,9.4 107.1,8.6 C107.1,7.7 107.3,7 107.7,6.3 C108.1,5.6 108.7,5.1 109.4,4.7 C110.1,4.3 110.9,4.1 111.8,4.1 C112.7,4.1 113.4,4.3 114.1,4.7 C114.8,5.1 115.3,5.6 115.7,6.3 C116.1,7 116.3,7.8 116.3,8.7 C116.2,8.6 116.2,8.8 116.2,9.2 Z M110.2,6.4 C109.8,6.7 109.6,7.2 109.5,7.7 L113.8,7.7 C113.7,7.1 113.5,6.7 113.1,6.4 C112.7,6.1 112.2,5.9 111.7,5.9 C111.1,5.9 110.6,6.1 110.2,6.4 Z" id="Shape"></path><path d="M121.6,4.3 C122.1,4.1 122.7,4 123.4,4 L123.4,6.4 C123.1,6.4 122.9,6.4 122.8,6.4 C122.1,6.4 121.5,6.6 121.1,7 C120.7,7.4 120.5,8 120.5,8.8 L120.5,13 L117.9,13 L117.9,4.2 L120.3,4.2 L120.3,5.4 C120.7,4.9 121.1,4.5 121.6,4.3 Z" id="Path"></path><path d="M129.7,2.5 C129.4,2.2 129.3,1.9 129.3,1.5 C129.3,1.1 129.4,0.8 129.7,0.5 C130,0.2 130.4,0.1 130.8,0.1 C131.3,0.1 131.7,0.2 131.9,0.5 C132.1,0.8 132.3,1.1 132.3,1.5 C132.3,1.9 132.2,2.3 131.9,2.6 C131.6,2.9 131.2,3 130.8,3 C130.4,2.9 130,2.8 129.7,2.5 Z M129.6,4.1 L132.2,4.1 L132.2,12.9 L129.6,12.9 L129.6,4.1 Z" id="Shape"></path><path d="M142.5,5 C143.2,5.7 143.5,6.6 143.5,7.9 L143.5,12.9 L141,12.9 L141,8.3 C141,7.6 140.8,7.1 140.5,6.7 C140.2,6.4 139.8,6.2 139.2,6.2 C138.6,6.2 138,6.4 137.7,6.8 C137.4,7.2 137.1,7.8 137.1,8.6 L137.1,13 L134.5,13 L134.5,4.2 L136.9,4.2 L136.9,5.2 C137.2,4.8 137.7,4.5 138.2,4.3 C138.7,4.1 139.3,4 139.9,4 C141,4 141.8,4.3 142.5,5 Z" id="Path"></path><path d="M153.3,4.3 L155.6,4.3 L155.6,6.3 L153.4,6.3 L153.4,12.9 L150.8,12.9 L150.8,6.3 L149.4,6.3 L149.4,4.3 L150.8,4.3 L150.8,3.9 C150.8,2.9 151.1,2.1 151.7,1.5 C152.3,0.9 153.1,0.6 154.2,0.6 C154.6,0.6 154.9,0.6 155.3,0.7 C155.7,0.8 155.9,0.9 156.2,1.1 L155.5,2.9 C155.2,2.7 154.9,2.6 154.5,2.6 C153.7,2.6 153.3,3 153.3,3.9 L153.3,4.3 Z M158.2,2.5 C157.9,2.2 157.8,1.9 157.8,1.5 C157.8,1.1 157.9,0.8 158.2,0.5 C158.5,0.2 158.9,0.1 159.3,0.1 C159.8,0.1 160.2,0.2 160.4,0.5 C160.7,0.8 160.8,1.1 160.8,1.5 C160.8,1.9 160.7,2.3 160.4,2.6 C160.1,2.9 159.7,3 159.3,3 C158.9,2.9 158.5,2.8 158.2,2.5 Z M158.1,4.1 L160.7,4.1 L160.7,12.9 L158.1,12.9 L158.1,4.1 Z" id="Shape"></path><polygon id="Path" points="168.6 12.9 166.7 10.2 164.7 12.9 161.9 12.9 165.3 8.5 162 4.1 164.9 4.1 166.8 6.7 168.7 4.1 171.4 4.1 168.1 8.4 171.5 12.9"></polygon><path d="M181.1,9.2 L174.4,9.2 C174.5,9.7 174.8,10.2 175.3,10.5 C175.8,10.8 176.3,11 177,11 C177.5,11 177.9,10.9 178.2,10.8 C178.5,10.7 178.9,10.4 179.2,10.2 L180.6,11.7 C179.8,12.6 178.6,13.1 177,13.1 C176,13.1 175.1,12.9 174.4,12.5 C173.6,12.1 173,11.6 172.6,10.9 C172.2,10.2 172,9.4 172,8.6 C172,7.7 172.2,7 172.6,6.3 C173,5.6 173.6,5.1 174.3,4.7 C175,4.3 175.8,4.1 176.7,4.1 C177.6,4.1 178.3,4.3 179,4.7 C179.7,5.1 180.2,5.6 180.6,6.3 C181,7 181.2,7.8 181.2,8.7 C181.1,8.6 181.1,8.8 181.1,9.2 Z M175.1,6.4 C174.7,6.7 174.5,7.2 174.4,7.7 L178.7,7.7 C178.6,7.1 178.4,6.7 178,6.4 C177.6,6.1 177.1,5.9 176.6,5.9 C176,5.9 175.5,6.1 175.1,6.4 Z" id="Shape"></path><path d="M191.8,0.8 L191.8,12.9 L189.4,12.9 L189.4,11.9 C188.8,12.7 187.9,13 186.7,13 C185.9,13 185.1,12.8 184.4,12.4 C183.7,12 183.2,11.5 182.8,10.8 C182.4,10.1 182.2,9.3 182.2,8.4 C182.2,7.5 182.4,6.7 182.8,6 C183.2,5.3 183.7,4.8 184.4,4.4 C185.1,4 185.8,3.8 186.7,3.8 C187.8,3.8 188.7,4.2 189.3,4.9 L189.3,0.6 L191.8,0.6 L191.8,0.8 Z M188.6,10.3 C189,9.9 189.2,9.3 189.2,8.5 C189.2,7.8 189,7.2 188.6,6.7 C188.2,6.3 187.6,6 187,6 C186.3,6 185.8,6.2 185.4,6.7 C185,7.1 184.8,7.7 184.8,8.5 C184.8,9.2 185,9.8 185.4,10.3 C185.8,10.7 186.4,11 187,11 C187.7,11 188.2,10.7 188.6,10.3 Z" id="Shape"></path><polygon id="Path" points="198.8 0.8 201.4 0.8 201.4 12.9 198.8 12.9"></polygon><path d="M205.4,12.5 C204.7,12.1 204.1,11.6 203.7,10.9 C203.3,10.2 203.1,9.4 203.1,8.6 C203.1,7.7 203.3,6.9 203.7,6.3 C204.1,5.6 204.7,5.1 205.4,4.7 C206.1,4.3 207,4.1 207.9,4.1 C208.8,4.1 209.7,4.3 210.4,4.7 C211.1,5.1 211.7,5.6 212.1,6.3 C212.5,7 212.7,7.8 212.7,8.6 C212.7,9.5 212.5,10.3 212.1,10.9 C211.7,11.6 211.1,12.1 210.4,12.5 C209.7,12.9 208.8,13.1 207.9,13.1 C207,13.1 206.1,12.9 205.4,12.5 Z M209.5,10.3 C209.9,9.9 210.1,9.3 210.1,8.5 C210.1,7.8 209.9,7.2 209.5,6.7 C209.1,6.3 208.5,6 207.9,6 C207.2,6 206.7,6.2 206.3,6.7 C205.9,7.1 205.7,7.7 205.7,8.5 C205.7,9.2 205.9,9.8 206.3,10.3 C206.7,10.7 207.3,11 207.9,11 C208.5,11 209.1,10.7 209.5,10.3 Z" id="Shape"></path><path d="M223.5,4.1 L223.5,11.4 C223.5,13 223.1,14.2 222.2,15 C221.4,15.8 220.1,16.2 218.5,16.2 C217.6,16.2 216.8,16.1 216.1,15.9 C215.3,15.7 214.7,15.4 214.2,15 L215.2,13.2 C215.6,13.5 216,13.7 216.6,13.9 C217.2,14.1 217.7,14.2 218.3,14.2 C219.2,14.2 219.8,14 220.3,13.6 C220.7,13.2 220.9,12.6 220.9,11.8 L220.9,11.4 C220.2,12.1 219.3,12.5 218.1,12.5 C217.3,12.5 216.6,12.3 215.9,12 C215.2,11.6 214.7,11.1 214.3,10.5 C213.9,9.9 213.7,9.1 213.7,8.3 C213.7,7.5 213.9,6.7 214.3,6.1 C214.7,5.5 215.2,5 215.9,4.6 C216.6,4.2 217.3,4.1 218.1,4.1 C219.4,4.1 220.3,4.5 221,5.4 L221,4.3 L223.5,4.3 L223.5,4.1 Z M220.3,9.8 C220.7,9.4 220.9,8.9 220.9,8.2 C220.9,7.5 220.7,7 220.3,6.6 C219.9,6.2 219.3,6 218.6,6 C217.9,6 217.4,6.2 216.9,6.6 C216.5,7 216.2,7.5 216.2,8.2 C216.2,8.9 216.4,9.4 216.9,9.8 C217.4,10.2 217.9,10.4 218.6,10.4 C219.3,10.4 219.9,10.2 220.3,9.8 Z" id="Shape"></path><path d="M226,2.5 C225.7,2.2 225.6,1.9 225.6,1.5 C225.6,1.1 225.7,0.8 226,0.5 C226.3,0.2 226.7,0.1 227.1,0.1 C227.5,0.1 228,0.2 228.2,0.5 C228.5,0.8 228.6,1.1 228.6,1.5 C228.6,1.9 228.5,2.3 228.2,2.6 C227.9,2.9 227.5,3 227.1,3 C226.7,3 226.3,2.8 226,2.5 Z M225.9,4.1 L228.5,4.1 L228.5,12.9 L225.9,12.9 L225.9,4.1 Z" id="Shape"></path><path d="M232.5,12.5 C231.8,12.1 231.2,11.6 230.7,10.9 C230.3,10.2 230.1,9.4 230.1,8.6 C230.1,7.7 230.3,6.9 230.7,6.3 C231.1,5.6 231.7,5.1 232.5,4.7 C233.2,4.3 234.1,4.1 235,4.1 C235.9,4.1 236.7,4.3 237.4,4.7 C238.1,5.1 238.6,5.6 238.9,6.4 L236.9,7.5 C236.4,6.7 235.8,6.3 234.9,6.3 C234.2,6.3 233.7,6.5 233.2,7 C232.7,7.5 232.5,8 232.5,8.8 C232.5,9.6 232.7,10.1 233.2,10.6 C233.7,11.1 234.2,11.3 234.9,11.3 C235.8,11.3 236.4,10.9 236.9,10.1 L238.9,11.2 C238.6,11.9 238.1,12.4 237.4,12.8 C236.7,13.2 235.9,13.4 235,13.4 C234.1,13.1 233.3,12.9 232.5,12.5 Z" id="Path"></path><path d="M247.2,5 C247.9,5.6 248.3,6.6 248.3,7.9 L248.3,12.9 L245.9,12.9 L245.9,11.8 C245.4,12.6 244.5,13 243.2,13 C242.5,13 241.9,12.9 241.4,12.7 C240.9,12.5 240.5,12.2 240.3,11.8 C240,11.4 239.9,10.9 239.9,10.4 C239.9,9.6 240.2,8.9 240.8,8.5 C241.4,8 242.4,7.8 243.7,7.8 L245.7,7.8 C245.7,7.2 245.5,6.8 245.2,6.5 C244.9,6.2 244.4,6.1 243.7,6.1 C243.2,6.1 242.8,6.2 242.3,6.3 C241.8,6.4 241.5,6.6 241.1,6.9 L240.2,5.1 C240.7,4.8 241.3,4.5 241.9,4.3 C242.5,4.1 243.3,4 244,4 C245.4,4 246.4,4.3 247.2,5 Z M245,11 C245.3,10.8 245.6,10.5 245.7,10.1 L245.7,9.2 L243.9,9.2 C242.9,9.2 242.3,9.5 242.3,10.2 C242.3,10.5 242.4,10.8 242.7,11 C243,11.2 243.3,11.3 243.8,11.3 C244.3,11.3 244.6,11.2 245,11 Z" id="Shape"></path><polygon id="Path" points="250.6 0.8 253.2 0.8 253.2 12.9 250.6 12.9"></polygon><path d="M261.8,12.5 C261.1,12.1 260.5,11.6 260.1,10.9 C259.7,10.2 259.5,9.4 259.5,8.6 C259.5,7.7 259.7,6.9 260.1,6.3 C260.5,5.6 261.1,5.1 261.8,4.7 C262.5,4.3 263.4,4.1 264.3,4.1 C265.2,4.1 266.1,4.3 266.8,4.7 C267.5,5.1 268.1,5.6 268.5,6.3 C268.9,7 269.1,7.8 269.1,8.6 C269.1,9.5 268.9,10.3 268.5,10.9 C268.1,11.6 267.5,12.1 266.8,12.5 C266.1,12.9 265.2,13.1 264.3,13.1 C263.4,13.1 262.5,12.9 261.8,12.5 Z M265.9,10.3 C266.3,9.9 266.5,9.3 266.5,8.5 C266.5,7.8 266.3,7.2 265.9,6.7 C265.5,6.3 264.9,6 264.3,6 C263.7,6 263.1,6.2 262.7,6.7 C262.3,7.1 262.1,7.7 262.1,8.5 C262.1,9.2 262.3,9.8 262.7,10.3 C263.1,10.7 263.7,11 264.3,11 C264.9,11 265.5,10.7 265.9,10.3 Z" id="Shape"></path><path d="M274.5,4.3 C275,4.1 275.6,4 276.3,4 L276.3,6.4 C276,6.4 275.8,6.4 275.7,6.4 C275,6.4 274.4,6.6 274,7 C273.6,7.4 273.4,8 273.4,8.8 L273.4,13 L270.8,13 L270.8,4.2 L273.2,4.2 L273.2,5.4 C273.6,4.9 274,4.5 274.5,4.3 Z" id="Path"></path><path d="M286.7,0.8 L286.7,12.9 L284.3,12.9 L284.3,11.9 C283.7,12.7 282.8,13 281.6,13 C280.8,13 280,12.8 279.3,12.4 C278.6,12 278.1,11.5 277.7,10.8 C277.3,10.1 277.1,9.3 277.1,8.4 C277.1,7.5 277.3,6.7 277.7,6 C278.1,5.3 278.6,4.8 279.3,4.4 C280,4 280.7,3.8 281.6,3.8 C282.7,3.8 283.6,4.2 284.2,4.9 L284.2,0.6 L286.7,0.6 L286.7,0.8 Z M283.6,10.3 C284,9.9 284.2,9.3 284.2,8.5 C284.2,7.8 284,7.2 283.6,6.7 C283.2,6.3 282.6,6 282,6 C281.3,6 280.8,6.2 280.4,6.7 C280,7.1 279.8,7.7 279.8,8.5 C279.8,9.2 280,9.8 280.4,10.3 C280.8,10.7 281.4,11 282,11 C282.6,11 283.1,10.7 283.6,10.3 Z" id="Shape"></path><path d="M297.6,9.2 L291,9.2 C291.1,9.7 291.4,10.2 291.9,10.5 C292.4,10.8 292.9,11 293.6,11 C294.1,11 294.5,10.9 294.8,10.8 C295.1,10.7 295.5,10.4 295.8,10.2 L297.2,11.7 C296.4,12.6 295.2,13.1 293.6,13.1 C292.6,13.1 291.7,12.9 291,12.5 C290.2,12.1 289.6,11.6 289.2,10.9 C288.8,10.2 288.6,9.4 288.6,8.6 C288.6,7.7 288.8,7 289.2,6.3 C289.6,5.6 290.2,5.1 290.9,4.7 C291.6,4.3 292.4,4.1 293.3,4.1 C294.2,4.1 294.9,4.3 295.6,4.7 C296.3,5.1 296.8,5.6 297.2,6.3 C297.6,7 297.8,7.8 297.8,8.7 C297.7,8.6 297.7,8.8 297.6,9.2 Z M291.7,6.4 C291.3,6.7 291.1,7.2 291,7.7 L295.3,7.7 C295.2,7.1 295,6.7 294.6,6.4 C294.2,6.1 293.7,5.9 293.2,5.9 C292.5,5.9 292.1,6.1 291.7,6.4 Z" id="Shape"></path><path d="M303.1,4.3 C303.6,4.1 304.2,4 304.9,4 L304.9,6.4 C304.6,6.4 304.4,6.4 304.3,6.4 C303.6,6.4 303,6.6 302.6,7 C302.2,7.4 302,8 302,8.8 L302,13 L299.4,13 L299.4,4.2 L301.8,4.2 L301.8,5.4 C302.1,4.9 302.5,4.5 303.1,4.3 Z" id="Path"></path></g><g id="Group" transform="translate(1.000000, 391.000000)" fill="#00BCBC" fill-rule="nonzero"><polygon id="Path" points="3.1 2.9 3.1 5.9 8.4 5.9 8.4 8 3.1 8 3.1 12.2 0.4 12.2 0.4 0.7 9.1 0.7 9.1 2.8 3.1 2.8"></polygon><polygon id="Path" points="10.9 0.8 13.6 0.8 13.6 12.3 10.9 12.3"></polygon><polygon id="Path" points="16.3 0.8 19 0.8 19 10.1 24.7 10.1 24.7 12.3 16.3 12.3"></polygon><polygon id="Path" points="35 10.1 35 12.2 26.1 12.2 26.1 0.7 34.8 0.7 34.8 2.8 28.8 2.8 28.8 5.3 34.1 5.3 34.1 7.4 28.8 7.4 28.8 10.1"></polygon><path d="M49.3,1.3 C50,1.6 50.6,2.1 51,2.7 C51.4,3.3 51.6,4.1 51.6,4.9 C51.6,5.7 51.4,6.5 51,7.1 C50.6,7.7 50,8.2 49.3,8.5 C48.6,8.8 47.7,9 46.7,9 L44.4,9 L44.4,12.2 L41.7,12.2 L41.7,0.7 L46.7,0.7 C47.7,0.8 48.6,1 49.3,1.3 Z M48.4,6.4 C48.8,6.1 49,5.6 49,4.9 C49,4.3 48.8,3.8 48.4,3.4 C48,3.1 47.4,2.9 46.6,2.9 L44.4,2.9 L44.4,6.9 L46.6,6.9 C47.4,6.9 48,6.8 48.4,6.4 Z" id="Shape"></path><path d="M60.5,9.8 L55.2,9.8 L54.2,12.3 L51.5,12.3 L56.6,0.8 L59.2,0.8 L64.3,12.3 L61.5,12.3 L60.5,9.8 Z M59.7,7.8 L57.9,3.4 L56.1,7.8 L59.7,7.8 Z" id="Shape"></path><polygon id="Path" points="67.3 3 63.6 3 63.6 0.8 73.6 0.8 73.6 3 70 3 70 12.3 67.3 12.3"></polygon><polygon id="Path" points="85.6 0.8 85.6 12.3 82.9 12.3 82.9 7.6 77.7 7.6 77.7 12.3 75 12.3 75 0.8 77.7 0.8 77.7 5.3 82.9 5.3 82.9 0.8"></polygon></g><g id="Group" transform="translate(211.000000, 391.000000)" fill="#00BCBC" fill-rule="nonzero"><polygon id="Path" points="3.1 2.9 3.1 5.9 8.4 5.9 8.4 8 3.1 8 3.1 12.2 0.4 12.2 0.4 0.7 9.1 0.7 9.1 2.8 3.1 2.8"></polygon><polygon id="Path" points="10.9 0.8 13.6 0.8 13.6 12.3 10.9 12.3"></polygon><polygon id="Path" points="16.3 0.8 19 0.8 19 10.1 24.7 10.1 24.7 12.3 16.3 12.3"></polygon><polygon id="Path" points="35 10.1 35 12.2 26.1 12.2 26.1 0.7 34.8 0.7 34.8 2.8 28.8 2.8 28.8 5.3 34.1 5.3 34.1 7.4 28.8 7.4 28.8 10.1"></polygon><polygon id="Path" points="52.3 0.8 52.3 12.3 50.1 12.3 44.4 5.3 44.4 12.3 41.8 12.3 41.8 0.8 44 0.8 49.7 7.8 49.7 0.8"></polygon><path d="M62.5,9.8 L57.2,9.8 L56.2,12.3 L53.5,12.3 L58.6,0.8 L61.2,0.8 L66.3,12.3 L63.5,12.3 L62.5,9.8 Z M61.7,7.8 L59.9,3.4 L58.1,7.8 L61.7,7.8 Z" id="Shape"></path><polygon id="Path" points="77.9 12.2 77.9 5.3 74.5 11 73.3 11 69.9 5.5 69.9 12.2 67.4 12.2 67.4 0.7 69.6 0.7 73.9 7.8 78.1 0.7 80.3 0.7 80.3 12.2"></polygon><polygon id="Path" points="92 10.1 92 12.2 83.1 12.2 83.1 0.7 91.8 0.7 91.8 2.8 85.8 2.8 85.8 5.3 91.1 5.3 91.1 7.4 85.8 7.4 85.8 10.1"></polygon></g><g id="Group" transform="translate(447.000000, 391.000000)" fill="#00BCBC" fill-rule="nonzero"><path d="M0,0.8 L5.2,0.8 C6.4,0.8 7.5,1 8.5,1.5 C9.5,2 10.2,2.6 10.7,3.5 C11.2,4.4 11.5,5.4 11.5,6.5 C11.5,7.6 11.2,8.6 10.7,9.5 C10.2,10.4 9.4,11 8.5,11.5 C7.5,12 6.4,12.2 5.2,12.2 L0,12.2 L0,0.8 Z M5.1,10.1 C6.2,10.1 7.2,9.8 7.8,9.1 C8.5,8.5 8.8,7.6 8.8,6.5 C8.8,5.4 8.5,4.5 7.8,3.9 C7.1,3.3 6.2,2.9 5.1,2.9 L2.7,2.9 L2.7,10 L5.1,10 L5.1,10.1 Z" id="Shape"></path><path d="M20.9,9.8 L15.6,9.8 L14.6,12.3 L11.9,12.3 L17,0.8 L19.6,0.8 L24.7,12.3 L21.9,12.3 L20.9,9.8 Z M20.1,7.8 L18.3,3.4 L16.5,7.8 L20.1,7.8 Z" id="Shape"></path><polygon id="Path" points="27.7 3 24 3 24 0.8 34 0.8 34 3 30.3 3 30.3 12.3 27.6 12.3 27.6 3"></polygon><polygon id="Path" points="44.3 10.1 44.3 12.2 35.4 12.2 35.4 0.7 44.1 0.7 44.1 2.8 38.1 2.8 38.1 5.3 43.4 5.3 43.4 7.4 38.1 7.4 38.1 10.1"></polygon></g><rect id="Rectangle" fill="#002D3F" fill-rule="nonzero" x="220.8" y="0.7" width="72.3" height="72.3"></rect><g id="Group" transform="translate(229.000000, 11.000000)" fill="#E4EFF5" fill-rule="nonzero"><path d="M0.1,6.2 C0.1,2.4 2.2,0.3 5,0.3 C7.8,0.3 9.9,2.4 9.9,6.2 C9.9,10 7.8,12.1 5,12.1 C2.2,12.1 0.1,10 0.1,6.2 Z M7.3,6.2 C7.3,3.6 6.4,2.5 5.1,2.5 C3.8,2.5 2.9,3.6 2.9,6.2 C2.9,8.8 3.8,9.9 5.1,9.9 C6.4,9.9 7.3,8.8 7.3,6.2 Z" id="Shape"></path><path d="M11.2,6.2 C11.2,2.4 13.3,0.3 16.1,0.3 C18.9,0.3 21,2.4 21,6.2 C21,10 18.9,12.1 16.1,12.1 C13.3,12.1 11.2,10 11.2,6.2 Z M18.4,6.2 C18.4,3.6 17.5,2.5 16.2,2.5 C14.9,2.5 14,3.6 14,6.2 C14,8.8 14.9,9.9 16.2,9.9 C17.5,9.9 18.4,8.8 18.4,6.2 Z" id="Shape"></path><polygon id="Path" points="27.3 0.5 27.3 12 24.7 12 24.7 2.7 22.4 2.7 22.4 0.6 27.3 0.6"></polygon><path d="M28.6,6.2 C28.6,2.4 30.7,0.3 33.5,0.3 C36.3,0.3 38.4,2.4 38.4,6.2 C38.4,10 36.3,12.1 33.5,12.1 C30.7,12.1 28.6,10 28.6,6.2 Z M35.7,6.2 C35.7,3.6 34.8,2.5 33.5,2.5 C32.2,2.5 31.3,3.6 31.3,6.2 C31.3,8.8 32.2,9.9 33.5,9.9 C34.8,9.9 35.7,8.8 35.7,6.2 Z" id="Shape"></path><path d="M39.7,6.2 C39.7,2.4 41.8,0.3 44.6,0.3 C47.4,0.3 49.5,2.4 49.5,6.2 C49.5,10 47.4,12.1 44.6,12.1 C41.8,12.1 39.7,10 39.7,6.2 Z M46.8,6.2 C46.8,3.6 45.9,2.5 44.6,2.5 C43.3,2.5 42.4,3.6 42.4,6.2 C42.4,8.8 43.3,9.9 44.6,9.9 C45.9,9.9 46.8,8.8 46.8,6.2 Z" id="Shape"></path><polygon id="Path" points="55.7 0.5 55.7 12 53.1 12 53.1 2.7 50.8 2.7 50.8 0.6 55.7 0.6"></polygon><polygon id="Path" points="5.1 20.1 5.1 31.5 2.5 31.5 2.5 22.2 0.2 22.2 0.2 20.1"></polygon><polygon id="Path" points="12.3 20.1 12.3 31.5 9.7 31.5 9.7 22.2 7.4 22.2 7.4 20.1"></polygon><path d="M14.5,25.8 C14.5,22 16.6,19.9 19.4,19.9 C22.2,19.9 24.3,22 24.3,25.8 C24.3,29.6 22.2,31.7 19.4,31.7 C16.6,31.7 14.5,29.6 14.5,25.8 Z M21.7,25.8 C21.7,23.2 20.8,22.1 19.5,22.1 C18.2,22.1 17.3,23.2 17.3,25.8 C17.3,28.4 18.2,29.5 19.5,29.5 C20.8,29.5 21.7,28.4 21.7,25.8 Z" id="Shape"></path><path d="M26.6,25.8 C26.6,22 28.7,19.9 31.5,19.9 C34.3,19.9 36.4,22 36.4,25.8 C36.4,29.6 34.3,31.7 31.5,31.7 C28.7,31.7 26.6,29.6 26.6,25.8 Z M33.8,25.8 C33.8,23.2 32.9,22.1 31.6,22.1 C30.3,22.1 29.4,23.2 29.4,25.8 C29.4,28.4 30.3,29.5 31.6,29.5 C32.9,29.5 33.8,28.4 33.8,25.8 Z" id="Shape"></path><polygon id="Path" points="43.6 20.1 43.6 31.5 41 31.5 41 22.2 38.7 22.2 38.7 20.1"></polygon><path d="M45.9,25.8 C45.9,22 48,19.9 50.8,19.9 C53.6,19.9 55.7,22 55.7,25.8 C55.7,29.6 53.6,31.7 50.8,31.7 C48,31.7 45.9,29.6 45.9,25.8 Z M53,25.8 C53,23.2 52.1,22.1 50.8,22.1 C49.5,22.1 48.6,23.2 48.6,25.8 C48.6,28.4 49.5,29.5 50.8,29.5 C52.1,29.5 53,28.4 53,25.8 Z" id="Shape"></path><path d="M0.1,45.4 C0.1,41.6 2.2,39.5 5,39.5 C7.8,39.5 9.9,41.6 9.9,45.4 C9.9,49.2 7.8,51.3 5,51.3 C2.2,51.3 0.1,49.2 0.1,45.4 Z M7.3,45.4 C7.3,42.8 6.4,41.7 5.1,41.7 C3.8,41.7 2.9,42.8 2.9,45.4 C2.9,48 3.8,49.1 5.1,49.1 C6.4,49.1 7.3,48 7.3,45.4 Z" id="Shape"></path><polygon id="Path" points="17.2 39.7 17.2 51.1 14.6 51.1 14.6 41.8 12.3 41.8 12.3 39.7"></polygon><path d="M19.4,45.4 C19.4,41.6 21.5,39.5 24.3,39.5 C27.1,39.5 29.2,41.6 29.2,45.4 C29.2,49.2 27.1,51.3 24.3,51.3 C21.5,51.3 19.4,49.2 19.4,45.4 Z M26.6,45.4 C26.6,42.8 25.7,41.7 24.4,41.7 C23.1,41.7 22.2,42.8 22.2,45.4 C22.2,48 23.1,49.1 24.4,49.1 C25.7,49.1 26.6,48 26.6,45.4 Z" id="Shape"></path><polygon id="Path" points="36.4 39.7 36.4 51.1 33.8 51.1 33.8 41.8 31.5 41.8 31.5 39.7"></polygon><path d="M38.7,45.4 C38.7,41.6 40.8,39.5 43.6,39.5 C46.4,39.5 48.5,41.6 48.5,45.4 C48.5,49.2 46.4,51.3 43.6,51.3 C40.8,51.3 38.7,49.2 38.7,45.4 Z M45.9,45.4 C45.9,42.8 45,41.7 43.7,41.7 C42.4,41.7 41.5,42.8 41.5,45.4 C41.5,48 42.4,49.1 43.7,49.1 C44.9,49.1 45.9,48 45.9,45.4 Z" id="Shape"></path><polygon id="Path" points="55.7 39.7 55.7 51.1 53.1 51.1 53.1 41.8 50.8 41.8 50.8 39.7"></polygon></g></g></g></g></svg> 